<?xml version="1.0" standalone="no"?>
<!DOCTYPE svg PUBLIC "-//W3C//DTD SVG 20010904//EN"
 "http://www.w3.org/TR/2001/REC-SVG-20010904/DTD/svg10.dtd">
<svg version="1.0" xmlns="http://www.w3.org/2000/svg"
 width="691.000000pt" height="769.000000pt" viewBox="0 0 691.000000 769.000000"
 preserveAspectRatio="xMidYMid meet">

<g transform="translate(0.000000,769.000000) scale(0.100000,-0.100000)"
fill="#000000" stroke="none">
<path d="M214 7673 c3 -10 64 -253 136 -540 l130 -523 0 -625 0 -625 1025 0
1025 0 0 625 0 625 130 523 c72 287 133 530 136 540 5 16 -61 17 -1291 17
-1230 0 -1296 -1 -1291 -17z m2434 -523 l-130 -520 -1013 0 -1013 0 -130 520
-130 520 1273 0 1273 0 -130 -520z m-138 -1155 l0 -615 -1005 0 -1005 0 0 615
0 615 1005 0 1005 0 0 -615z"/>
<path d="M3944 7673 c3 -10 64 -253 136 -540 l130 -523 0 -625 0 -625 1025 0
1025 0 0 625 0 625 130 523 c72 287 133 530 136 540 5 16 -61 17 -1291 17
-1230 0 -1296 -1 -1291 -17z m2434 -523 l-130 -520 -1013 0 -1013 0 -130 520
-130 520 1273 0 1273 0 -130 -520z m-138 -1155 l0 -615 -1005 0 -1005 0 0 615
0 615 1005 0 1005 0 0 -615z"/>
<path d="M417 5299 c-199 -29 -377 -211 -407 -415 -13 -93 -13 -1994 0 -2089
30 -206 203 -382 410 -415 90 -14 5980 -14 6070 0 205 33 377 205 410 410 14
89 14 2011 0 2100 -33 207 -209 380 -415 410 -87 12 -5983 12 -6068 -1z m6084
-19 c177 -34 327 -177 374 -355 22 -88 23 -2081 0 -2168 -45 -173 -178 -307
-350 -352 -53 -13 -399 -15 -3070 -15 -3288 0 -3058 -4 -3177 56 -71 36 -159
123 -197 193 -63 119 -61 74 -61 1192 0 649 4 1036 10 1070 34 179 196 344
371 378 65 13 6033 14 6100 1z"/>
<path d="M480 1700 l0 -620 -130 -523 c-72 -287 -133 -530 -136 -539 -5 -17
61 -18 1291 -18 1230 0 1296 1 1291 18 -3 9 -64 252 -136 539 l-130 523 0 620
0 620 -1025 0 -1025 0 0 -620z m2030 -15 l0 -615 -1005 0 -1005 0 0 615 0 615
1005 0 1005 0 0 -615z m19 -672 c6 -21 64 -253 129 -515 l120 -478 -1273 0
-1273 0 120 478 c65 262 123 494 129 515 l10 37 1014 0 1014 0 10 -37z"/>
<path d="M4210 1700 l0 -620 -130 -523 c-72 -287 -133 -530 -136 -539 -5 -17
61 -18 1291 -18 1230 0 1296 1 1291 18 -3 9 -64 252 -136 539 l-130 523 0 620
0 620 -1025 0 -1025 0 0 -620z m2030 -15 l0 -615 -1005 0 -1005 0 0 615 0 615
1005 0 1005 0 0 -615z m19 -672 c6 -21 64 -253 129 -515 l120 -478 -1273 0
-1273 0 120 478 c65 262 123 494 129 515 l10 37 1014 0 1014 0 10 -37z"/>
</g>
</svg>
